<svg width="92" height="92" viewBox="0 0 92 92" fill="none" xmlns="http://www.w3.org/2000/svg">
<g filter="url(#filter0_ddd)">
<circle cx="43" cy="43" r="20" fill="url(#paint0_linear)"/>
</g>
<g filter="url(#filter1_dd)">
<path fill-rule="evenodd" clip-rule="evenodd" d="M44.3891 51.3333C44.3716 51.3333 44.355 51.3325 44.3383 51.3316C43.9616 51.3091 43.6475 51.0358 43.5725 50.6658L42.2908 44.36C42.2241 44.0316 41.9683 43.7758 41.64 43.7091L35.3341 42.4266C34.9641 42.3525 34.6908 42.0383 34.6683 41.6616C34.6458 41.2841 34.8783 40.9391 35.2366 40.8208L48.57 36.3766C48.8691 36.275 49.1991 36.3533 49.4225 36.5775C49.6458 36.8008 49.7233 37.1308 49.6241 37.43L45.1791 50.7633C45.0658 51.1058 44.7458 51.3333 44.3891 51.3333Z" fill="#231F20"/>
<mask id="mask0" mask-type="alpha" maskUnits="userSpaceOnUse" x="34" y="36" width="16" height="16">
<path fill-rule="evenodd" clip-rule="evenodd" d="M44.3891 51.3333C44.3716 51.3333 44.355 51.3325 44.3383 51.3316C43.9616 51.3091 43.6475 51.0358 43.5725 50.6658L42.2908 44.36C42.2241 44.0316 41.9683 43.7758 41.64 43.7091L35.3341 42.4266C34.9641 42.3525 34.6908 42.0383 34.6683 41.6616C34.6458 41.2841 34.8783 40.9391 35.2366 40.8208L48.57 36.3766C48.8691 36.275 49.1991 36.3533 49.4225 36.5775C49.6458 36.8008 49.7233 37.1308 49.6241 37.43L45.1791 50.7633C45.0658 51.1058 44.7458 51.3333 44.3891 51.3333Z" fill="white"/>
</mask>
<g mask="url(#mask0)">
<rect x="33" y="33" width="20" height="20" fill="white"/>
</g>
</g>
<defs>
<filter id="filter0_ddd" x="0" y="0" width="92" height="92" filterUnits="userSpaceOnUse" color-interpolation-filters="sRGB">
<feFlood flood-opacity="0" result="BackgroundImageFix"/>
<feColorMatrix in="SourceAlpha" type="matrix" values="0 0 0 0 0 0 0 0 0 0 0 0 0 0 0 0 0 0 127 0"/>
<feOffset dx="4" dy="6"/>
<feGaussianBlur stdDeviation="5"/>
<feColorMatrix type="matrix" values="0 0 0 0 0.164706 0 0 0 0 0.545098 0 0 0 0 0.94902 0 0 0 0.15 0"/>
<feBlend mode="normal" in2="BackgroundImageFix" result="effect1_dropShadow"/>
<feColorMatrix in="SourceAlpha" type="matrix" values="0 0 0 0 0 0 0 0 0 0 0 0 0 0 0 0 0 0 127 0"/>
<feOffset dx="2" dy="2"/>
<feGaussianBlur stdDeviation="12.5"/>
<feColorMatrix type="matrix" values="0 0 0 0 0.164706 0 0 0 0 0.545098 0 0 0 0 0.94902 0 0 0 0.05 0"/>
<feBlend mode="normal" in2="effect1_dropShadow" result="effect2_dropShadow"/>
<feColorMatrix in="SourceAlpha" type="matrix" values="0 0 0 0 0 0 0 0 0 0 0 0 0 0 0 0 0 0 127 0"/>
<feOffset dx="4" dy="4"/>
<feGaussianBlur stdDeviation="12.5"/>
<feColorMatrix type="matrix" values="0 0 0 0 0.164706 0 0 0 0 0.545098 0 0 0 0 0.94902 0 0 0 0.15 0"/>
<feBlend mode="normal" in2="effect2_dropShadow" result="effect3_dropShadow"/>
<feBlend mode="normal" in="SourceGraphic" in2="effect3_dropShadow" result="shape"/>
</filter>
<filter id="filter1_dd" x="31" y="32" width="24" height="24" filterUnits="userSpaceOnUse" color-interpolation-filters="sRGB">
<feFlood flood-opacity="0" result="BackgroundImageFix"/>
<feColorMatrix in="SourceAlpha" type="matrix" values="0 0 0 0 0 0 0 0 0 0 0 0 0 0 0 0 0 0 127 0"/>
<feOffset dy="1"/>
<feGaussianBlur stdDeviation="0.5"/>
<feColorMatrix type="matrix" values="0 0 0 0 0 0 0 0 0 0 0 0 0 0 0 0 0 0 0.03 0"/>
<feBlend mode="normal" in2="BackgroundImageFix" result="effect1_dropShadow"/>
<feColorMatrix in="SourceAlpha" type="matrix" values="0 0 0 0 0 0 0 0 0 0 0 0 0 0 0 0 0 0 127 0"/>
<feOffset dy="1"/>
<feGaussianBlur stdDeviation="1"/>
<feColorMatrix type="matrix" values="0 0 0 0 0 0 0 0 0 0 0 0 0 0 0 0 0 0 0.03 0"/>
<feBlend mode="normal" in2="effect1_dropShadow" result="effect2_dropShadow"/>
<feBlend mode="normal" in="SourceGraphic" in2="effect2_dropShadow" result="shape"/>
</filter>
<linearGradient id="paint0_linear" x1="52.3333" y1="60.3333" x2="29.6667" y2="27" gradientUnits="userSpaceOnUse">
<stop stop-color="#2A8BF2"/>
<stop offset="1" stop-color="#7CB8F7"/>
</linearGradient>
</defs>
</svg>
